<svg width="41" height="41" viewBox="0 0 41 41" fill="none" xmlns="http://www.w3.org/2000/svg">
<path d="M35.8094 4.22599L6.14281 4.17066C5.65658 4.16975 5.1899 4.36203 4.84545 4.70521C4.50099 5.04838 4.30697 5.51434 4.30606 6.00057L4.25073 35.6672C4.25028 35.9079 4.29725 36.1464 4.38897 36.369C4.48069 36.5916 4.61536 36.794 4.78528 36.9645C4.9552 37.1351 5.15705 37.2705 5.37931 37.3631C5.60157 37.4556 5.83988 37.5035 6.08064 37.5039L22.0473 37.5337L22.0714 24.6171L17.738 24.609L17.7474 19.609L22.0807 19.6171L22.0877 15.8671C21.9996 14.9865 22.1052 14.0973 22.3971 13.2619C22.689 12.4264 23.1601 11.665 23.7775 11.0309C24.3948 10.3968 25.1434 9.90551 25.9708 9.59138C26.7981 9.27725 27.6842 9.14793 28.5668 9.21249C29.864 9.20693 31.1605 9.27612 32.4497 9.41973L32.4413 13.9197L29.7913 13.9148C27.6913 13.9109 27.2895 14.9101 27.2868 16.3601L27.2808 19.5768L32.2808 19.5861L31.6214 24.5849L27.2715 24.5768L27.2473 37.5434L35.7473 37.5593C35.988 37.5597 36.2265 37.5127 36.4491 37.421C36.6717 37.3293 36.8741 37.1946 37.0446 37.0247C37.2152 36.8548 37.3506 36.6529 37.4431 36.4307C37.5357 36.2084 37.5836 35.9701 37.584 35.7294L37.6393 6.06274C37.6398 5.82198 37.5928 5.58349 37.5011 5.36089C37.4094 5.13829 37.2747 4.93593 37.1048 4.76538C36.9349 4.59482 36.733 4.4594 36.5108 4.36685C36.2885 4.2743 36.0502 4.22644 35.8094 4.22599Z" fill="#141414"/>
</svg>
