<svg width="41" height="41" viewBox="0 0 41 41" fill="none" xmlns="http://www.w3.org/2000/svg">
<path d="M29.8655 9.8473C29.4699 9.84656 29.083 9.96314 28.7537 10.1823C28.4244 10.4014 28.1675 10.7133 28.0154 11.0785C27.8634 11.4437 27.823 11.8457 27.8994 12.2338C27.9759 12.6219 28.1657 12.9786 28.4449 13.2589C28.7241 13.5391 29.0801 13.7302 29.4679 13.8081C29.8557 13.886 30.2579 13.8472 30.6237 13.6965C30.9894 13.5458 31.3022 13.29 31.5226 12.9615C31.743 12.6331 31.861 12.2466 31.8617 11.851C31.8627 11.3206 31.653 10.8115 31.2786 10.4357C30.9042 10.06 30.3959 9.84829 29.8655 9.8473ZM37.5246 13.8949C37.4948 12.512 37.2383 11.1434 36.7655 9.8435C36.3438 8.73127 35.6861 7.72362 34.8377 6.8899C34.014 6.03408 33.0064 5.37678 31.8912 4.96774C30.5966 4.47559 29.2274 4.20812 27.8427 4.17685C26.0762 4.07356 25.5096 4.0725 20.9762 4.06404C16.4429 4.05559 15.8762 4.05453 14.1094 4.15124C12.7246 4.17734 11.3544 4.4397 10.0579 4.92702C8.94331 5.33602 7.93418 5.98899 7.10437 6.83818C6.24855 7.66188 5.59125 8.66942 5.18221 9.7846C4.69006 11.0793 4.42259 12.4484 4.39132 13.8331C4.28803 15.5996 4.28697 16.1663 4.27851 20.6996C4.27006 25.2329 4.269 25.7996 4.36571 27.5664C4.39181 28.9512 4.65417 30.3214 5.14149 31.6179C5.54636 32.7346 6.1999 33.7446 7.05265 34.5715C7.87928 35.4237 8.88596 36.0805 9.99907 36.4936C11.2937 36.9858 12.6629 37.2532 14.0476 37.2845C15.8141 37.3878 16.3807 37.3889 20.9141 37.3973C25.4474 37.4058 26.0141 37.4068 27.7809 37.3101C29.1657 37.284 30.5359 37.0217 31.8324 36.5344C32.9491 36.1295 33.959 35.4759 34.7859 34.6232C35.6412 33.7958 36.3033 32.7897 36.7248 31.6768C37.2024 30.3787 37.464 29.011 37.499 27.6282C37.5023 25.8616 37.6033 25.2951 37.6118 20.7618C37.6202 16.2284 37.6213 15.6618 37.5246 13.8949ZM34.4994 27.4226C34.4853 28.4806 34.2917 29.5284 33.9269 30.5216C33.6595 31.2464 33.2308 31.901 32.6733 32.4359C32.1317 32.9857 31.4769 33.4111 30.7543 33.6823C29.7598 34.0434 28.7113 34.2331 27.6533 34.2432C25.9865 34.3234 25.3698 34.339 20.9865 34.3308C16.6031 34.3226 15.9865 34.3215 14.32 34.2184C13.2214 34.2369 12.1279 34.0657 11.0876 33.7123C10.3978 33.4245 9.77451 32.9978 9.25659 32.4589C8.7044 31.9225 8.28355 31.2657 8.02683 30.5399C7.62181 29.5311 7.39812 28.4587 7.36608 27.372C7.36918 25.7054 7.27033 25.0885 7.27851 20.7052C7.28669 16.3219 7.28784 15.7052 7.39094 14.0387C7.40043 12.9572 7.59988 11.8857 7.98018 10.8732C8.27491 10.1702 8.72644 9.54397 9.30027 9.04228C9.80769 8.47017 10.4343 8.01622 11.1361 7.71236C12.1527 7.34767 13.2238 7.15806 14.3038 7.15161C15.9705 7.15471 16.5873 7.05586 20.9706 7.06404C25.354 7.07222 25.9706 7.07337 27.6371 7.17647C28.695 7.19058 29.7429 7.38415 30.7361 7.74892C31.4929 8.03142 32.1718 8.48968 32.7169 9.08595C33.2621 9.59893 33.6877 10.2257 33.9635 10.9216C34.332 11.9372 34.5217 13.009 34.5242 14.0893C34.6045 15.7562 34.62 16.3728 34.6118 20.7562C34.6036 25.1395 34.5858 25.7561 34.4994 27.4226ZM20.9611 12.1807C19.2708 12.1808 17.6184 12.682 16.2128 13.6209C14.8072 14.5597 13.7115 15.8942 13.064 17.4556C12.4165 19.017 12.2463 20.7352 12.575 22.3933C12.9037 24.0513 13.7165 25.5748 14.9107 26.7711C16.1048 27.9674 17.6268 28.7829 19.2843 29.1145C20.9417 29.4462 22.6603 29.2791 24.2229 28.6344C25.7854 27.9897 27.1218 26.8963 28.0632 25.4924C29.0045 24.0884 29.5086 22.437 29.5118 20.7467C29.5161 19.6218 29.298 18.5073 28.87 17.4671C28.442 16.4268 27.8126 15.4815 27.0179 14.6854C26.2232 13.8893 25.279 13.2582 24.2396 12.8284C23.2001 12.3985 22.0859 12.1784 20.9611 12.1807ZM20.9348 26.2807C19.8371 26.2786 18.7647 25.9511 17.8531 25.3396C16.9416 24.728 16.2318 23.8599 15.8137 22.845C15.3955 21.8301 15.2877 20.714 15.5038 19.6378C15.72 18.5616 16.2504 17.5737 17.028 16.7989C17.8057 16.0242 18.7956 15.4975 19.8726 15.2853C20.9495 15.0732 22.0653 15.1852 23.0786 15.6071C24.092 16.0291 24.9574 16.7421 25.5656 17.6559C26.1737 18.5697 26.4972 19.6434 26.4951 20.741C26.4938 21.4699 26.3489 22.1913 26.0687 22.8641C25.7885 23.537 25.3786 24.148 24.8623 24.6624C24.3459 25.1768 23.7334 25.5845 23.0595 25.8622C22.3856 26.1398 21.6636 26.282 20.9348 26.2807Z" fill="#141414"/>
</svg>
