<svg width="232" height="592" viewBox="0 0 232 592" fill="none" xmlns="http://www.w3.org/2000/svg">
<path opacity="0.1" d="M-85.325 324.172C-49.8448 382.777 -14.3648 441.381 21.1154 499.986C36.228 524.942 51.7892 550.4 74.4361 568.833C97.083 587.266 128.538 597.489 155.931 587.526C175.016 580.603 189.971 564.707 199.33 546.715C229.773 488.712 207.483 418.444 208.24 352.896C209.279 264.887 252.697 173.136 217.981 92.15C190.315 27.6637 113.929 -9.61237 44.8173 2.24547C-24.2944 14.1033 -81.9827 70.4133 -102.01 137.631C-122.037 204.848 -110.57 282.46 -85.325 324.172Z" fill="url(#paint0_linear_1_102)"/>
<defs>
<linearGradient id="paint0_linear_1_102" x1="17.4022" y1="8.30981" x2="159.601" y2="623.54" gradientUnits="userSpaceOnUse">
<stop stop-color="#0264FD"/>
<stop offset="1" stop-color="#5FD5FB"/>
</linearGradient>
</defs>
</svg>
