<svg width="302" height="629" viewBox="0 0 302 629" fill="none" xmlns="http://www.w3.org/2000/svg">
<path opacity="0.1" d="M427.433 23.9489C408.408 22.3014 389.708 18.0024 371.879 11.1774C321.936 -7.60407 262.652 -2.796 217.757 26.2027C162.277 61.85 131.129 131.83 142.127 196.739C147.4 228.104 161.373 260.784 149.66 290.346C128.229 344.174 43.2208 340.868 11.4698 389.362C-12.4093 425.798 4.57732 475.231 29.737 510.766C76.7043 577.139 152.937 623.981 234.254 628.638C315.571 633.296 399.637 592.691 440.503 522.41C450.396 506.452 456.562 488.479 458.544 469.822C460.917 438.57 447.019 408.256 446.115 376.966C444.721 327.007 475.794 282.871 502.272 240.462C528.75 198.054 552.366 146.555 535.115 99.6384C524.682 71.2032 500.276 49.4917 472.706 36.833C458.45 30.1249 443.177 25.8218 427.509 24.0991" fill="url(#paint0_linear_1_101)"/>
<defs>
<linearGradient id="paint0_linear_1_101" x1="270.5" y1="0" x2="270.5" y2="666.413" gradientUnits="userSpaceOnUse">
<stop stop-color="#0264FD"/>
<stop offset="1" stop-color="#5FD5FB"/>
</linearGradient>
</defs>
</svg>
