<svg width="792" height="677" viewBox="0 0 792 677" fill="none" xmlns="http://www.w3.org/2000/svg">
<path opacity="0.05" d="M340.698 33.5076C276.336 41.2502 214.471 63.0491 159.497 97.356C104.524 131.663 57.7904 177.636 22.6168 232.01C2.66715 263.372 -11.947 307.89 13.7556 334.758C43.8192 366.213 95.5491 343.236 134.381 323.501C180.611 299.986 230.081 283.453 281.173 274.443C322.233 267.217 378.602 275.509 384.355 316.692C390.061 356.763 342.6 379.971 308.5 401.883C273.26 424.659 246.052 457.886 230.696 496.895C224.062 513.85 219.979 533.677 228.516 549.752C244.243 579.215 288.458 575.045 318.196 559.712C379.066 528.304 424.904 468.869 490.738 450.061C502.475 446.726 515.327 444.826 526.832 448.995C560.886 461.457 556.803 511.673 539.544 543.498C522.286 575.323 497.789 610.762 511.383 644.209C525.812 679.091 576.335 685.53 608.811 666.444C641.288 647.359 660.124 611.92 677.243 578.427C710.307 513.294 743.402 448.193 776.528 383.121C783.905 368.622 791.467 353.474 791.977 337.167C792.812 308.353 770.496 282.735 743.959 271.432C717.421 260.129 687.45 260.314 658.686 262.445C631.545 264.391 603.012 267.634 578.284 256.145C531.89 234.372 522.611 166.367 550.447 123.054C569.005 94.1932 600.878 64.8233 588.908 32.7664C578.423 4.97151 541.725 -0.911761 511.847 0.107387C450.746 2.19201 393.495 27.4854 340.698 33.5076Z" fill="url(#paint0_linear_1_243)"/>
<defs>
<linearGradient id="paint0_linear_1_243" x1="396" y1="-6.10352e-05" x2="396" y2="717.268" gradientUnits="userSpaceOnUse">
<stop stop-color="#0264FD"/>
<stop offset="1" stop-color="#5FD5FB"/>
</linearGradient>
</defs>
</svg>
