<svg width="41" height="41" viewBox="0 0 41 41" fill="none" xmlns="http://www.w3.org/2000/svg">
<path d="M37.6307 9.83123C36.3769 10.3724 35.0514 10.7292 33.6954 10.8906C35.1272 10.0388 36.2016 8.69654 36.7191 7.11286C35.3735 7.91046 33.9011 8.47144 32.366 8.77141C31.3423 7.65712 29.9777 6.91411 28.4863 6.65892C26.9948 6.40373 25.4608 6.65079 24.1249 7.36135C22.789 8.07192 21.7267 9.20579 21.1046 10.5851C20.4826 11.9645 20.3359 13.5113 20.6877 14.983C17.9703 14.8404 15.3134 14.1279 12.8894 12.8915C10.4653 11.6552 8.32853 9.92274 6.61773 7.80672C6.01434 8.85588 5.69609 10.0447 5.69463 11.255C5.6904 12.379 5.96417 13.4865 6.49155 14.4791C7.01893 15.4717 7.78356 16.3184 8.71736 16.944C7.63071 16.9124 6.56777 16.6188 5.61895 16.0882L5.6188 16.1715C5.624 17.7464 6.17301 19.2711 7.17294 20.4877C8.17287 21.7044 9.56236 22.5383 11.1064 22.8485C10.5114 23.0283 9.89397 23.1225 9.27249 23.1284C8.84232 23.1225 8.41328 23.0827 7.98938 23.0093C8.4267 24.3648 9.27568 25.5503 10.4182 26.4008C11.5607 27.2513 12.9399 27.7245 14.3639 27.7545C11.9557 29.6422 8.9849 30.6693 5.92509 30.6721C5.36797 30.6729 4.81137 30.6385 4.25861 30.569C7.37889 32.5919 11.0175 33.6695 14.7362 33.6719C17.3023 33.7033 19.8489 33.2231 22.2273 32.2593C24.6058 31.2955 26.7683 29.8675 28.5887 28.0586C30.409 26.2496 31.8507 24.0961 32.8294 21.7238C33.8082 19.3515 34.3044 16.8079 34.2891 14.2417C34.2896 13.9583 34.2902 13.6583 34.2908 13.3583C35.6004 12.3855 36.7306 11.1919 37.6307 9.83123Z" fill="#141414"/>
</svg>
