<svg width="190" height="17" viewBox="0 0 190 17" fill="none" xmlns="http://www.w3.org/2000/svg">
<path d="M184.035 9.74475C184.035 9.74475 190.574 7.92346 187.007 7.38449C183.44 6.8455 115.373 1.30242 95.1609 1.9872C75.2462 2.6619 4.20641 9.07094 2.12575 9.40824C0.045091 9.74552 14.9068 5.97915 28.5799 4.68617C43.4416 3.28079 109.428 6.7099 112.104 6.7099C114.244 6.7099 151.339 10.7566 151.636 9.40824C151.933 8.05989 141.232 7.38368 134.099 6.7091C125.479 5.89398 58.0062 8.05825 58.0062 9.74475C58.0062 11.4311 71.3819 10.7566 77.6239 10.7566C83.8659 10.7566 102.592 10.7566 112.104 11.4319C118.63 11.8953 138.26 13.4549 141.232 14.4668" stroke="#E7ECFF" stroke-width="2.8934" stroke-linecap="round"/>
</svg>
