<svg width="41" height="42" viewBox="0 0 41 42" fill="none" xmlns="http://www.w3.org/2000/svg">
<path d="M36.8663 11.8588C37.6225 14.8303 37.6109 21.0302 37.6109 21.0302C37.6109 21.0302 37.5993 27.2302 36.8321 30.1988C36.4057 31.8397 35.165 33.129 33.5958 33.5628C30.746 34.3508 20.9194 34.3325 20.9194 34.3325C20.9194 34.3325 11.0977 34.3142 8.24589 33.5155C6.67172 33.0692 5.43746 31.7769 5.02218 30.1395C4.26606 27.1681 4.27762 20.9681 4.27762 20.9681C4.27762 20.9681 4.28919 14.7681 5.05639 11.7995C5.48278 10.1586 6.72353 8.86928 8.29267 8.43554C11.1475 7.64753 20.9691 7.66585 20.9691 7.66585C20.9691 7.66585 30.7958 7.68418 33.6426 8.48282C35.2168 8.92909 36.4511 10.2214 36.8663 11.8588ZM17.6001 26.8263L27.6109 21.0116L17.6218 15.1596L17.6001 26.8263Z" fill="#141414"/>
</svg>
